<svg width="34" height="34" viewBox="0 0 34 34" fill="none" xmlns="http://www.w3.org/2000/svg">
<g id="Layer 2">
<path id="Vector" d="M24.875 15.875C23.095 15.875 21.3549 16.4028 19.8749 17.3918C18.3948 18.3807 17.2413 19.7863 16.5601 21.4308C15.8789 23.0754 15.7007 24.885 16.0479 26.6308C16.3952 28.3766 17.2524 29.9803 18.511 31.239C19.7697 32.4976 21.3734 33.3548 23.1192 33.7021C24.865 34.0493 26.6746 33.8711 28.3192 33.1899C29.9637 32.5087 31.3693 31.3552 32.3582 29.8751C33.3472 28.3951 33.875 26.655 33.875 24.875C33.8718 22.489 32.9226 20.2017 31.2354 18.5146C29.5483 16.8274 27.261 15.8782 24.875 15.875ZM24.875 23.75C25.5807 23.7488 26.2648 23.9938 26.8093 24.4427C27.3538 24.8917 27.7246 25.5165 27.8579 26.2095C27.9911 26.9026 27.8785 27.6204 27.5394 28.2393C27.2002 28.8582 26.6558 29.3394 26 29.6V30.1287C26 30.4271 25.8815 30.7133 25.6705 30.9242C25.4595 31.1352 25.1734 31.2537 24.875 31.2537C24.5766 31.2537 24.2905 31.1352 24.0795 30.9242C23.8685 30.7133 23.75 30.4271 23.75 30.1287V29.6C23.1865 29.3763 22.703 28.9887 22.362 28.4873C22.0211 27.9859 21.8384 27.3938 21.8375 26.7875C21.8375 26.4891 21.956 26.203 22.167 25.992C22.378 25.781 22.6641 25.6625 22.9625 25.6625C23.2609 25.6625 23.547 25.781 23.758 25.992C23.969 26.203 24.0875 26.4891 24.0875 26.7875C24.0875 26.9433 24.1337 27.0955 24.2202 27.225C24.3068 27.3545 24.4297 27.4555 24.5736 27.5151C24.7175 27.5747 24.8759 27.5903 25.0286 27.5599C25.1814 27.5295 25.3217 27.4545 25.4319 27.3443C25.542 27.2342 25.617 27.0939 25.6474 26.9411C25.6778 26.7884 25.6622 26.63 25.6026 26.4861C25.543 26.3422 25.442 26.2192 25.3125 26.1327C25.183 26.0462 25.0308 26 24.875 26C24.1693 26.0012 23.4852 25.7562 22.9407 25.3073C22.3963 24.8583 22.0254 24.2335 21.8921 23.5405C21.7589 22.8474 21.8715 22.1296 22.2106 21.5107C22.5498 20.8918 23.0942 20.4106 23.75 20.15V19.6212C23.75 19.3229 23.8685 19.0367 24.0795 18.8258C24.2905 18.6148 24.5766 18.4962 24.875 18.4962C25.1734 18.4962 25.4595 18.6148 25.6705 18.8258C25.8815 19.0367 26 19.3229 26 19.6212V20.15C26.5636 20.3737 27.047 20.7613 27.388 21.2627C27.7289 21.7641 27.9116 22.3562 27.9125 22.9625C27.9125 23.2609 27.794 23.547 27.583 23.758C27.372 23.969 27.0859 24.0875 26.7875 24.0875C26.4891 24.0875 26.203 23.969 25.992 23.758C25.781 23.547 25.6625 23.2609 25.6625 22.9625C25.6625 22.8067 25.6163 22.6545 25.5298 22.525C25.4433 22.3955 25.3203 22.2945 25.1764 22.2349C25.0325 22.1753 24.8741 22.1597 24.7214 22.1901C24.5686 22.2205 24.4283 22.2955 24.3182 22.4057C24.208 22.5158 24.133 22.6561 24.1026 22.8089C24.0722 22.9616 24.0878 23.12 24.1474 23.2639C24.2071 23.4078 24.308 23.5308 24.4375 23.6173C24.567 23.7038 24.7193 23.75 24.875 23.75Z" fill="#FDFEFF"/>
<path id="Vector_2" d="M28.25 0.125H2.375C1.7788 0.12673 1.2075 0.364339 0.785921 0.785921C0.364339 1.2075 0.12673 1.7788 0.125 2.375V31.625C0.12673 32.2212 0.364339 32.7925 0.785921 33.2141C1.2075 33.6357 1.7788 33.8733 2.375 33.875H20.2514C19.025 33.2458 17.9401 32.3728 17.0631 31.3094C16.1862 30.246 15.5357 29.0147 15.1515 27.691C14.7674 26.3672 14.6577 24.9789 14.8292 23.6113C15.0007 22.2437 15.4497 20.9255 16.1488 19.7375C16.8479 18.5496 17.7823 17.517 18.8946 16.7031C20.007 15.8891 21.2739 15.311 22.6176 15.0041C23.9614 14.6972 25.3537 14.668 26.7091 14.9184C28.0645 15.1688 29.3545 15.6933 30.5 16.46V2.375C30.4983 1.7788 30.2607 1.2075 29.8391 0.785921C29.4175 0.364339 28.8462 0.12673 28.25 0.125ZM12.4772 24.5826L9.81302 28.8459C9.71189 29.0077 9.57126 29.1412 9.40434 29.2337C9.23742 29.3263 9.04971 29.3748 8.85886 29.3749C8.7539 29.3747 8.64946 29.3601 8.54849 29.3315C8.31369 29.2641 8.1072 29.1221 7.96023 28.9269C7.81326 28.7318 7.7338 28.4942 7.73386 28.2499V25.2149L6.22433 24.4601C6.09217 24.3941 5.97431 24.3026 5.87749 24.191C5.78067 24.0794 5.70679 23.9498 5.66007 23.8096C5.61334 23.6694 5.59469 23.5214 5.60517 23.374C5.61565 23.2266 5.65507 23.0828 5.72117 22.9506L8.38535 17.6217C8.49874 17.3951 8.68531 17.2134 8.91485 17.106C9.14439 16.9986 9.40345 16.9719 9.65008 17.0301C9.89671 17.0883 10.1165 17.2281 10.2737 17.4268C10.431 17.6255 10.5166 17.8715 10.5167 18.1249V21.8256L12.1982 23.0868C12.4235 23.2559 12.5773 23.5034 12.629 23.7804C12.6806 24.0574 12.6265 24.3437 12.4772 24.5826ZM17 13.625H6.875C6.57663 13.625 6.29048 13.5065 6.0795 13.2955C5.86853 13.0845 5.75 12.7984 5.75 12.5C5.75 12.2016 5.86853 11.9155 6.0795 11.7045C6.29048 11.4935 6.57663 11.375 6.875 11.375H17C17.2984 11.375 17.5845 11.4935 17.7955 11.7045C18.0065 11.9155 18.125 12.2016 18.125 12.5C18.125 12.7984 18.0065 13.0845 17.7955 13.2955C17.5845 13.5065 17.2984 13.625 17 13.625ZM22.625 8H6.875C6.57663 8 6.29048 7.88147 6.0795 7.6705C5.86853 7.45952 5.75 7.17337 5.75 6.875C5.75 6.57663 5.86853 6.29048 6.0795 6.0795C6.29048 5.86853 6.57663 5.75 6.875 5.75H22.625C22.9234 5.75 23.2095 5.86853 23.4205 6.0795C23.6315 6.29048 23.75 6.57663 23.75 6.875C23.75 7.17337 23.6315 7.45952 23.4205 7.6705C23.2095 7.88147 22.9234 8 22.625 8Z" fill="#FDFEFF"/>
</g>
</svg>
