<svg width="36" height="36" viewBox="0 0 36 36" fill="none" xmlns="http://www.w3.org/2000/svg">
<g id="Icons">
<path id="Vector" d="M31.8041 4.0219C31.7407 3.96928 31.6666 3.93099 31.587 3.90963C31.5074 3.88827 31.4242 3.88435 31.3429 3.89815C26.9111 4.6989 22.3409 4.14208 18.231 2.30065C18.1587 2.26728 18.08 2.25 18.0004 2.25C17.9208 2.25 17.8421 2.26728 17.7698 2.30065C13.66 4.14208 9.08966 4.69891 4.6579 3.89815C4.57664 3.88436 4.49336 3.88828 4.41375 3.90963C4.33415 3.93099 4.26009 3.96928 4.19665 4.0219C4.13305 4.07345 4.08184 4.13863 4.04679 4.21262C4.01174 4.28661 3.99375 4.36753 3.99415 4.4494V15.9525C4.00466 24.259 9.33656 33.5437 18.0003 33.7389C26.6657 33.541 31.9947 24.255 32.0068 15.9527L32.0066 4.4494C32.0058 4.36774 31.9872 4.28724 31.9523 4.21344C31.9173 4.13964 31.8668 4.07429 31.8041 4.0219ZM29.7566 15.9525C29.799 22.9141 25.2816 31.3218 18.0005 31.5002C10.7184 31.3251 6.20248 22.9065 6.24405 15.9526L6.24415 7.00315C6.24512 6.9257 6.26184 6.84926 6.29329 6.77848C6.32475 6.7077 6.37027 6.64406 6.42711 6.59144C6.48394 6.53882 6.55088 6.49831 6.62387 6.47239C6.69686 6.44647 6.77435 6.43566 6.85165 6.44065C8.91053 6.59248 10.9804 6.48095 13.011 6.10877C14.6476 5.81356 16.2497 5.35179 17.7923 4.73065C17.9264 4.68004 18.0744 4.68004 18.2085 4.73065C19.7514 5.35105 21.3534 5.8128 22.9898 6.10877C25.0204 6.48096 27.0903 6.59248 29.1491 6.44065C29.2264 6.43567 29.3039 6.44647 29.3769 6.4724C29.4499 6.49832 29.5168 6.53883 29.5737 6.59145C29.6305 6.64407 29.676 6.70771 29.7075 6.77849C29.739 6.84926 29.7557 6.9257 29.7566 7.00315V15.9525Z" fill="#FDFEFF"/>
<path id="Vector_2" d="M22.7873 7.21689C21.1518 6.91999 19.5487 6.46601 18.0004 5.86127C14.6195 7.18614 10.9959 7.77856 7.36914 7.59939V15.9525C7.36914 21.1725 9.63601 25.9931 13.4329 28.8506C21.5292 34.3824 28.9152 23.8716 28.6315 15.9525L28.6316 7.59939C26.6753 7.69819 24.7141 7.56983 22.7873 7.21689ZM23.4566 23.1356C23.2544 23.4586 22.9732 23.7247 22.6396 23.9088C22.3059 24.0928 21.9308 24.1888 21.5498 24.1875H14.451C14.07 24.1888 13.6949 24.0928 13.3612 23.9088C13.0276 23.7247 12.7463 23.4586 12.5441 23.1356C11.2488 20.9373 14.0028 18.5028 15.8909 17.8143C13.4261 15.9087 14.8436 11.7748 18.0005 11.8126C21.1573 11.7774 22.5754 15.9058 20.1097 17.8144C21.9995 18.5032 24.7506 20.9368 23.4566 23.1356Z" fill="#FDFEFF"/>
<path id="Vector_3" d="M20.25 15.1875C20.1754 18.1551 15.8242 18.1546 15.75 15.1874C15.8246 12.2199 20.1758 12.2204 20.25 15.1875Z" fill="#FDFEFF"/>
<path id="Vector_4" d="M22.505 22.5338C22.4042 22.6964 22.2633 22.8304 22.0959 22.9229C21.9284 23.0155 21.74 23.0636 21.5487 23.0625H14.45C14.2587 23.0636 14.0703 23.0155 13.9028 22.9229C13.7354 22.8304 13.5946 22.6964 13.4937 22.5338C13.3895 22.3762 13.3284 22.1941 13.3166 22.0056C13.3047 21.8171 13.3425 21.6287 13.4262 21.4594C13.8357 20.5929 14.483 19.8605 15.2926 19.3477C16.1023 18.8348 17.0409 18.5625 17.9994 18.5625C18.9578 18.5625 19.8964 18.8348 20.7061 19.3477C21.5157 19.8605 22.163 20.5929 22.5725 21.4594C22.6548 21.6291 22.6919 21.8172 22.68 22.0055C22.6682 22.1937 22.6079 22.3757 22.505 22.5338Z" fill="#FDFEFF"/>
</g>
</svg>
