<svg width="36" height="36" viewBox="0 0 36 36" fill="none" xmlns="http://www.w3.org/2000/svg">
<g id="Icons" clip-path="url(#clip0_246_321)">
<path id="Vector" d="M32.0066 3.17815C31.9784 3.10853 31.9364 3.04529 31.8833 2.99215C31.8301 2.93901 31.7669 2.89706 31.6973 2.86877L32.0066 3.17815Z" fill="#FDFEFF"/>
<path id="Vector_2" d="M33.0189 9.56249C32.8705 9.56038 32.729 9.49973 32.6251 9.39375L26.6064 3.375C26.5394 3.30679 26.491 3.22266 26.4656 3.13053C26.4401 3.03841 26.4386 2.94133 26.4611 2.84845C26.4837 2.75558 26.5295 2.66997 26.5942 2.59971C26.659 2.52945 26.7406 2.47685 26.8314 2.44687L28.3782 1.94062L28.8845 0.393745C28.9145 0.303004 28.9671 0.221396 29.0373 0.156621C29.1076 0.0918457 29.1932 0.0460398 29.2861 0.0235248C29.379 0.00100969 29.476 0.0025279 29.5682 0.0279361C29.6603 0.0533444 29.7444 0.101805 29.8126 0.168745L35.8314 6.1875C35.9052 6.25885 35.9581 6.34907 35.9844 6.44836C36.0106 6.54765 36.0091 6.65222 35.9802 6.75074C35.9512 6.84927 35.8958 6.93798 35.82 7.00726C35.7442 7.07653 35.6508 7.12374 35.5501 7.14374L33.9189 7.48125L33.5814 9.1125C33.56 9.21182 33.512 9.30349 33.4427 9.37777C33.3734 9.45205 33.2852 9.50617 33.1876 9.53437L33.0189 9.56249Z" fill="#FDFEFF"/>
<path id="Vector_3" d="M9.64609 2.8125L10.1242 2.98125L9.16797 3.9375H27.9555L26.9992 2.98125L27.4773 2.8125H9.64609Z" fill="#FDFEFF"/>
<path id="Vector_4" d="M5.42812 2.84064C5.35056 2.86871 5.28013 2.91349 5.2218 2.97182C5.16348 3.03014 5.1187 3.10058 5.09063 3.17814L5.42812 2.84064ZM32.0625 32.3719V8.04376L30.9375 6.91876V32.4281C30.9634 33.1586 30.7123 33.8719 30.2344 34.425C30.0837 34.5836 29.8993 34.7063 29.6949 34.7842C29.4904 34.8621 29.2711 34.8931 29.0531 34.875C27.45 34.7906 27.2531 32.9625 27.225 32.7375L27.3094 29.6438C27.3122 29.5564 27.2946 29.4696 27.258 29.3903C27.2214 29.3109 27.1668 29.2412 27.0986 29.1866C27.0303 29.132 26.9503 29.0941 26.8648 29.0758C26.7794 29.0575 26.6909 29.0594 26.6062 29.0813L6.1875 34.7063V6.91876L5.0625 8.04376V35.4375C5.06797 35.4759 5.0774 35.5136 5.09063 35.55V35.6344H5.11875L5.175 35.6906H5.20312L5.25938 35.7469H5.2875L5.37188 35.8031H29.1656C29.5122 35.8044 29.8555 35.7353 30.1746 35.5999C30.4937 35.4645 30.7819 35.2658 31.0219 35.0156C31.6834 34.2932 32.0541 33.3514 32.0625 32.3719Z" fill="#FDFEFF"/>
<path id="Vector_5" d="M4.1072 9.56249H3.93845C3.84083 9.53429 3.75268 9.48018 3.68335 9.4059C3.61402 9.33162 3.56611 9.23995 3.5447 9.14062L3.2072 7.50937L1.57595 7.14374C1.47522 7.12374 1.38189 7.07653 1.30609 7.00726C1.23028 6.93798 1.17488 6.84927 1.1459 6.75074C1.11693 6.65222 1.11547 6.54765 1.1417 6.44836C1.16793 6.34907 1.22084 6.25885 1.2947 6.1875L7.31345 0.168745C7.38165 0.101805 7.46579 0.0533444 7.55791 0.0279361C7.65004 0.0025279 7.74712 0.00100969 7.83999 0.0235248C7.93286 0.0460398 8.01847 0.0918457 8.08873 0.156621C8.159 0.221396 8.2116 0.303004 8.24157 0.393745L8.74782 1.94062L10.2947 2.44687C10.3854 2.47685 10.467 2.52945 10.5318 2.59971C10.5966 2.66997 10.6424 2.75558 10.6649 2.84845C10.6874 2.94133 10.6859 3.03841 10.6605 3.13053C10.6351 3.22266 10.5866 3.30679 10.5197 3.375L4.50095 9.39375C4.39709 9.49973 4.25557 9.56038 4.1072 9.56249ZM18.7322 21.9375C18.6105 21.9375 18.4921 21.898 18.3947 21.825C18.3103 21.7406 16.0885 20.0812 15.0478 18.5062C14.9952 18.446 14.9559 18.3752 14.9328 18.2985C14.9097 18.2219 14.9032 18.1412 14.9138 18.0619C14.9243 17.9826 14.9517 17.9064 14.994 17.8385C15.0364 17.7705 15.0927 17.7124 15.1593 17.668C15.2259 17.6236 15.3012 17.594 15.3802 17.581C15.4592 17.568 15.54 17.5721 15.6173 17.5928C15.6946 17.6136 15.7666 17.6506 15.8285 17.7015C15.8903 17.7523 15.9406 17.8157 15.976 17.8875C16.6791 18.9281 18.0291 20.0812 18.676 20.6156L19.351 19.9687C18.5916 19.4344 17.326 18.3656 16.5385 16.9875C16.5015 16.9229 16.4777 16.8516 16.4683 16.7777C16.4589 16.7039 16.4641 16.6289 16.4837 16.5571C16.5033 16.4853 16.5369 16.418 16.5824 16.3592C16.628 16.3003 16.6848 16.251 16.7494 16.2141C16.814 16.1771 16.8853 16.1533 16.9591 16.1439C17.033 16.1345 17.108 16.1398 17.1798 16.1593C17.3248 16.1989 17.4482 16.2945 17.5228 16.425C18.5072 18.1406 20.5322 19.3781 20.5322 19.4062C20.6044 19.4501 20.6658 19.5096 20.7118 19.5803C20.7579 19.6511 20.7874 19.7314 20.7982 19.8151C20.809 19.8989 20.8008 19.984 20.7743 20.0641C20.7477 20.1443 20.7034 20.2174 20.6447 20.2781L19.1259 21.7687C19.0221 21.8747 18.8806 21.9354 18.7322 21.9375Z" fill="#FDFEFF"/>
<path id="Vector_6" d="M25.2846 14.5688C25.3914 14.4569 25.474 14.3243 25.5272 14.1791C25.5804 14.0339 25.6032 13.8794 25.594 13.725C25.594 12.3469 23.8502 10.1531 22.3315 8.66251C20.8127 7.17189 17.6627 4.64064 16.4252 5.73751H16.369C16.2622 5.84934 16.1796 5.98198 16.1264 6.12715C16.0732 6.27233 16.0504 6.42691 16.0596 6.58126C16.062 6.67558 16.0714 6.76958 16.0877 6.86251C15.6714 9.96083 14.2484 12.8365 12.0377 15.0469C11.9347 15.152 11.877 15.2934 11.877 15.4406C11.877 15.5879 11.9347 15.7292 12.0377 15.8344L14.8221 18.5906C14.9273 18.6937 15.0686 18.7514 15.2159 18.7514C15.3631 18.7514 15.5045 18.6937 15.6096 18.5906C18.6752 15.5531 22.3596 15.0188 24.0471 14.8219L24.4409 14.8781C24.7161 14.8871 24.9855 14.7974 25.2002 14.625H25.2846V14.5688ZM24.469 13.6688H24.1034C23.3721 13.4438 21.8534 12.5438 20.1377 10.8281C18.4221 9.11251 17.4377 7.56564 17.2409 6.89064V6.58126C17.8034 6.60939 19.519 7.50939 21.5159 9.47814C23.5127 11.4469 24.4409 13.1344 24.4971 13.6688H24.469Z" fill="#FDFEFF"/>
<path id="Vector_7" d="M20.7 12.5437L20.4469 12.4875C20.3801 12.4546 20.3205 12.4088 20.2715 12.3527C20.2225 12.2966 20.1852 12.2313 20.1616 12.1607C20.1381 12.0901 20.1288 12.0154 20.1343 11.9412C20.1398 11.8669 20.16 11.7945 20.1938 11.7281L20.5875 10.9688L20.0531 10.4344L19.2937 10.8C19.1595 10.8671 19.004 10.8782 18.8616 10.8307C18.7192 10.7832 18.6015 10.6811 18.5344 10.5469C18.4672 10.4126 18.4562 10.2572 18.5037 10.1148C18.5511 9.97235 18.6532 9.85463 18.7875 9.7875L19.9125 9.225C20.0185 9.17365 20.138 9.15689 20.2541 9.17707C20.3701 9.19726 20.4769 9.25337 20.5594 9.3375L21.6844 10.4344C21.7685 10.5168 21.8246 10.6236 21.8448 10.7397C21.865 10.8558 21.8482 10.9752 21.7969 11.0813L21.2344 12.1781C21.1938 12.2867 21.1207 12.3801 21.0251 12.4455C20.9294 12.511 20.8159 12.5453 20.7 12.5437ZM14.1469 19.3781C13.9237 19.3824 13.7019 19.3423 13.4943 19.2602C13.2867 19.1782 13.0974 19.0557 12.9375 18.9L11.7562 17.7188C11.5998 17.5644 11.4755 17.3805 11.3907 17.1777C11.3059 16.9749 11.2623 16.7573 11.2623 16.5375C11.2623 16.3177 11.3059 16.1001 11.3907 15.8973C11.4755 15.6945 11.5998 15.5106 11.7562 15.3562L12.0656 15.0469C12.1708 14.9438 12.3121 14.8861 12.4594 14.8861C12.6066 14.8861 12.748 14.9438 12.8531 15.0469L15.6375 17.8031C15.7406 17.9083 15.7983 18.0496 15.7983 18.1969C15.7983 18.3441 15.7406 18.4855 15.6375 18.5906L15.3281 18.9C15.012 19.2076 14.588 19.3793 14.1469 19.3781ZM12.4594 16.2281C12.3818 16.3322 12.3447 16.4609 12.355 16.5903C12.3654 16.7197 12.4225 16.8409 12.5156 16.9313L13.725 18.1125C13.8148 18.205 13.9336 18.2639 14.0616 18.2792C14.1896 18.2946 14.319 18.2655 14.4281 18.1969L12.4594 16.2281ZM23.3438 8.26875C23.2337 8.2672 23.1264 8.23338 23.0354 8.17147C22.9443 8.10956 22.8734 8.02229 22.8315 7.92048C22.7896 7.81866 22.7785 7.70679 22.7995 7.59871C22.8206 7.49064 22.8729 7.39112 22.95 7.3125L23.5125 6.75C23.6208 6.66876 23.7548 6.62932 23.8899 6.63892C24.0249 6.64851 24.152 6.70651 24.2477 6.80225C24.3435 6.898 24.4015 7.02506 24.4111 7.16012C24.4207 7.29519 24.3812 7.42918 24.3 7.5375L23.7375 8.1C23.6336 8.20598 23.4921 8.26664 23.3438 8.26875ZM21.2625 6.75C21.1133 6.75 20.9702 6.69074 20.8648 6.58525C20.7593 6.47976 20.7 6.33668 20.7 6.1875V5.625C20.7 5.47582 20.7593 5.33274 20.8648 5.22725C20.9702 5.12176 21.1133 5.0625 21.2625 5.0625C21.4117 5.0625 21.5548 5.12176 21.6602 5.22725C21.7657 5.33274 21.825 5.47582 21.825 5.625V6.1875C21.825 6.33668 21.7657 6.47976 21.6602 6.58525C21.5548 6.69074 21.4117 6.75 21.2625 6.75ZM25.3125 10.1813H24.75C24.6008 10.1813 24.4577 10.122 24.3523 10.0165C24.2468 9.91101 24.1875 9.76793 24.1875 9.61875C24.1875 9.46957 24.2468 9.32649 24.3523 9.221C24.4577 9.11551 24.6008 9.05625 24.75 9.05625H25.3125C25.4617 9.05625 25.6048 9.11551 25.7102 9.221C25.8157 9.32649 25.875 9.46957 25.875 9.61875C25.875 9.76793 25.8157 9.91101 25.7102 10.0165C25.6048 10.122 25.4617 10.1813 25.3125 10.1813ZM11.8125 25.3125H9C8.85082 25.3125 8.70774 25.2532 8.60225 25.1477C8.49676 25.0423 8.4375 24.8992 8.4375 24.75C8.4375 24.6008 8.49676 24.4577 8.60225 24.3523C8.70774 24.2468 8.85082 24.1875 9 24.1875H11.8125C11.9617 24.1875 12.1048 24.2468 12.2102 24.3523C12.3157 24.4577 12.375 24.6008 12.375 24.75C12.375 24.8992 12.3157 25.0423 12.2102 25.1477C12.1048 25.2532 11.9617 25.3125 11.8125 25.3125ZM28.125 25.3125H14.0625C13.9133 25.3125 13.7702 25.2532 13.6648 25.1477C13.5593 25.0423 13.5 24.8992 13.5 24.75C13.5 24.6008 13.5593 24.4577 13.6648 24.3523C13.7702 24.2468 13.9133 24.1875 14.0625 24.1875H28.125C28.2742 24.1875 28.4173 24.2468 28.5227 24.3523C28.6282 24.4577 28.6875 24.6008 28.6875 24.75C28.6875 24.8992 28.6282 25.0423 28.5227 25.1477C28.4173 25.2532 28.2742 25.3125 28.125 25.3125ZM18 28.125H9C8.85082 28.125 8.70774 28.0657 8.60225 27.9602C8.49676 27.8548 8.4375 27.7117 8.4375 27.5625C8.4375 27.4133 8.49676 27.2702 8.60225 27.1648C8.70774 27.0593 8.85082 27 9 27H18C18.1492 27 18.2923 27.0593 18.3977 27.1648C18.5032 27.2702 18.5625 27.4133 18.5625 27.5625C18.5625 27.7117 18.5032 27.8548 18.3977 27.9602C18.2923 28.0657 18.1492 28.125 18 28.125ZM21.375 28.125H20.25C20.1008 28.125 19.9577 28.0657 19.8523 27.9602C19.7468 27.8548 19.6875 27.7117 19.6875 27.5625C19.6875 27.4133 19.7468 27.2702 19.8523 27.1648C19.9577 27.0593 20.1008 27 20.25 27H21.375C21.5242 27 21.6673 27.0593 21.7727 27.1648C21.8782 27.2702 21.9375 27.4133 21.9375 27.5625C21.9375 27.7117 21.8782 27.8548 21.7727 27.9602C21.6673 28.0657 21.5242 28.125 21.375 28.125Z" fill="#FDFEFF"/>
</g>
<defs>
<clipPath id="clip0_246_321">
<rect width="36" height="36" fill="white"/>
</clipPath>
</defs>
</svg>
